<?xml version="1.0" encoding="UTF-8" standalone="no"?>
<!-- Created with Inkscape (http://www.inkscape.org/) -->

<svg
   xmlns:dc="http://purl.org/dc/elements/1.1/"
   xmlns:cc="http://creativecommons.org/ns#"
   xmlns:rdf="http://www.w3.org/1999/02/22-rdf-syntax-ns#"
   xmlns:svg="http://www.w3.org/2000/svg"
   xmlns="http://www.w3.org/2000/svg"
   xmlns:sodipodi="http://sodipodi.sourceforge.net/DTD/sodipodi-0.dtd"
   xmlns:inkscape="http://www.inkscape.org/namespaces/inkscape"
   version="1.1"
   viewBox="0 0 174.16 46.015"
   id="svg2"
   inkscape:version="0.48.5 r10040"
   width="100%"
   height="100%"
   sodipodi:docname="logo.svg">
  <sodipodi:namedview
     pagecolor="#ffffff"
     bordercolor="#666666"
     borderopacity="1"
     objecttolerance="10"
     gridtolerance="10"
     guidetolerance="10"
     inkscape:pageopacity="0"
     inkscape:pageshadow="2"
     inkscape:window-width="1920"
     inkscape:window-height="1017"
     id="namedview20"
     showgrid="false"
     inkscape:zoom="11.400757"
     inkscape:cx="75.195568"
     inkscape:cy="12.424828"
     inkscape:window-x="-8"
     inkscape:window-y="-8"
     inkscape:window-maximized="1"
     inkscape:current-layer="svg2" />
  <defs
     id="defs4" />
  <metadata
     id="metadata6">
    <rdf:RDF>
      <cc:Work
         rdf:about="">
        <dc:format>image/svg+xml</dc:format>
        <dc:type
           rdf:resource="http://purl.org/dc/dcmitype/StillImage" />
        <dc:title />
      </cc:Work>
    </rdf:RDF>
  </metadata>
  <path
     fill="#FFF"
     d="M14.75,8.25c-0.582,0.0173-1.088,0.0191-1.781,0.3438-0.648,0.3036-1.314,1.1064-1.469,1.8752-0.088,0.436-0.094,0.804-0.094,1.25v19.187c0,0.728-0.047,1.382-0.094,1.906-0.039,0.449-0.098,0.742-0.156,0.876-0.053,0.014-0.171,0.031-0.344,0.031-0.399,0-0.726-0.077-1.0308-0.219-0.4236-0.197-0.719-0.389-0.9062-0.562l-3.1562,0.562c-0.1365,0.273-0.2407,0.578-0.375,0.906-0.2489,0.609-0.3438,1.229-0.3438,1.844,0,0.597,0.1562,1.194,0.4062,1.719,0.3104,0.651,0.7829,1.156,1.3126,1.531,0.6074,0.43,1.287,0.67,2,0.844,0.7725,0.188,1.5972,0.25,2.5312,0.25,1.313,0,2.515-0.201,3.594-0.75,0.975-0.497,1.83-1.224,2.437-2.125,0.342-0.508,0.45-1.133,0.657-1.719,0.308,0.746,0.544,1.566,1.031,2.156,0.779,0.946,1.804,1.676,2.969,2.032,0.998,0.304,2.051,0.437,3.156,0.437,0.841,0,1.656-0.063,2.437-0.187,0.782-0.125,1.515-0.297,2.188-0.563,0.666-0.263,1.279-0.578,1.812-1.063,0.065-0.059,0.128-0.144,0.188-0.218h0.906c0.668,0.689,1.522,1.215,2.437,1.531,1.075,0.371,2.277,0.5,3.626,0.5,1.255,0,2.474-0.13,3.687-0.437,1.119-0.284,2.118-0.705,3.031-1.188l0.75,1.25h1.782c0.511,0,0.944-0.029,1.374-0.094,0.455-0.068,0.974-0.145,1.594-0.687,0.314-0.275,0.522-0.566,0.688-0.875,0.01-0.019,0.021-0.044,0.031-0.063l0.031-0.031,1.063-1.875c0.262-0.466,0.525-0.974,0.781-1.5,0.015-0.03,0.017-0.064,0.031-0.094,0.017,0.034,0.046,0.06,0.063,0.094,0.255,0.526,0.519,1.034,0.781,1.5l1.469,2.594,1.75,1.031h2.281c0.6,0,1.027-0.023,1.594-0.156,0.244-0.058,0.495-0.093,0.906-0.375,0.259-0.178,0.586-0.615,0.781-1.125h2.156l0.376-4.75,5.156-1.782,0.437,1.063v5.125l2,2h1.844c0.5,0,0.886-0.008,1.344-0.094,0.468-0.087,1.337-0.199,1.843-1.375,0.03-0.068,0.041-0.122,0.063-0.187h1.187l1.657,1.656h1.906c0.501,0,0.867-0.03,1.344-0.125,0.238-0.048,0.494-0.107,0.843-0.313,0.337-0.198,0.801-0.614,1-1.218h1.126l1.656,1.656h1.812c0.5,0,0.887-0.008,1.344-0.094,0.469-0.087,1.37-0.222,1.875-1.406,0.027-0.064,0.01-0.096,0.031-0.156,0.182,0.197,0.257,0.487,0.469,0.656,0.8,0.641,1.768,1.063,2.781,1.219,0.796,0.122,1.619,0.156,2.438,0.156,1.456,0,2.746-0.158,3.936-0.531,1.03-0.323,1.88-0.649,2.63-1.094l0.25-0.406h2.15c0.42,0.566,0.95,1.036,1.57,1.375,0.92,0.51,1.92,0.656,3,0.656,0.48,0,0.98-0.029,1.46-0.094,0.55-0.072,1.06-0.204,1.57-0.406,0.56-0.224,1.09-0.568,1.53-1.031,0.14-0.147,0.2-0.316,0.25-0.5h0.43c0.73,0.732,1.62,1.295,2.6,1.594,1,0.304,2.05,0.437,3.16,0.437,0.84,0,1.65-0.063,2.43-0.187,0.78-0.125,1.52-0.297,2.19-0.563,0.67-0.263,1.25-0.578,1.78-1.063h0.03c0.07-0.061,0.13-0.142,0.19-0.218h0.91c0.66,0.689,1.52,1.215,2.43,1.531,1.08,0.371,2.25,0.5,3.6,0.5,1.25,0,2.5-0.13,3.72-0.437,1.18-0.301,2.26-0.724,3.22-1.25l0.15-0.282,1.59,1.594h1.88c0.51,0,0.89-0.028,1.38-0.125,0.46-0.094,1.3-0.242,1.78-1.344,0.03-0.068,0.04-0.122,0.06-0.187h2.53c0.05,0.071,0.1,0.153,0.16,0.218,0.52,0.592,1.15,0.944,1.81,1.188,1.23,0.452,2.62,0.625,4.22,0.625,2.36,0,4.48-0.552,6.09-1.875,1.64-1.345,2.5-3.463,2.5-5.688,0-1.249-0.23-2.439-0.75-3.5-0.5-1.019-1.23-1.949-2.19-2.906l-0.15-0.125-3.72-3c-0.53-0.425-0.72-0.682-0.72-0.656,0.22-0.087,0.48-0.187,1.03-0.187,1.15,0,2.05,0.251,2.88,0.75l2.53-0.376c0.71-0.792,1.22-1.868,1.22-3,0-0.663-0.19-1.129-0.41-1.562-0.37-0.731-0.92-1.21-1.5-1.562-0.64-0.387-1.35-0.622-2.13-0.813-0.89-0.219-1.85-0.281-3-0.281-2.41,0-4.46,0.461-6.03,1.687-0.23-0.328-0.43-0.692-0.75-0.906-1.03-0.712-2.07-0.781-3.28-0.781s-2.42,0.216-3.56,0.625c-1.01,0.362-1.97,0.827-2.84,1.406h-0.13l-1.62-1.625c-0.81,0-1.46-0.015-1.94,0-0.49,0.015-0.85,0.038-1.28,0.125-0.47,0.093-1.34,0.272-1.81,1.375-0.02,0.036-0.02,0.059-0.04,0.094h-1.93l-1.6-1.594c-0.86,0-1.54-0.014-2.03,0-0.5,0.015-0.87,0.037-1.31,0.125-0.47,0.093-1.34,0.264-1.81,1.375-0.01,0.025,0,0.042,0,0.062h-0.19c-1.25-1.275-3.01-1.968-4.91-1.968-1.07,0-2.15,0.162-3.18,0.468-0.93,0.275-1.73,0.779-2.44,1.438h-1.03l-1.5-1.5h-2.1v-5.219l-2-1.9998c-0.68,0-1.26,0.0169-1.72,0.0313-0.51,0.0163-0.97,0.0495-1.47,0.1875-0.57,0.1588-1.27,0.5485-1.68,1.25-0.34,0.576-0.41,1.157-0.41,1.656v4.094c-0.38,0-0.81,0.048-1.28,0.281-0.37,0.186-0.59,0.459-0.78,0.719-1.29-1.013-2.95-1.406-4.81-1.406-1.635,0-3.056,0.138-4.348,0.437-1.168,0.271-1.936,0.418-2.781,0.938l-0.219,0.156c-0.076,0.064-0.131,0.165-0.187,0.25l-0.5-0.031c-0.461-0.511-1.005-0.957-1.625-1.219-0.962-0.406-1.999-0.531-3.156-0.531-1.01,0-2.036,0.142-3.063,0.406-0.597,0.154-1.112,0.404-1.656,0.625-0.321-0.189-0.587-0.466-0.937-0.594-0.88-0.32-1.824-0.437-2.844-0.437-1.263,0-2.514,0.128-3.688,0.406-1.129,0.268-2.181,0.636-3.187,1.094l-0.094,0.156h-0.219-1.625l-8.843-0.062-0.719-1.188h-1.938c-0.512,0-0.924-0.017-1.375,0.062-0.419,0.074-0.95,0.066-1.625,0.876-0.165,0.198-0.291,0.4-0.406,0.593l-0.031,0.031-1.188,2.188h-0.031c-0.138,0.258-0.269,0.545-0.406,0.812-0.123-0.25-0.231-0.522-0.344-0.75l-0.031-0.062-1.5-2.719-1.75-1.031h-2.094c-0.547,0-0.951,0.003-1.438,0.094-0.202,0.038-0.398,0.068-0.718,0.218-0.166,0.079-0.444,0.219-0.688,0.469l-0.781-0.781c-0.811,0-1.43-0.015-1.906,0-0.491,0.015-0.847,0.038-1.281,0.125-0.468,0.093-1.336,0.271-1.813,1.375-0.016,0.036-0.018,0.059-0.031,0.094h-1.969l-1.594-1.594c-0.863,0-1.509-0.014-2,0-0.503,0.015-0.87,0.037-1.312,0.125-0.468,0.093-1.337,0.263-1.813,1.375-0.043,0.101-0.003,0.158-0.031,0.25-1.258-1.397-3.106-2.156-5.094-2.156-1.072,0-2.123,0.162-3.156,0.468-1.27,0.378-2.393,1.169-3.25,2.219-0.258,0.317-0.443,0.701-0.656,1.063v-9.344l-2-2c-0.838,0-1.48-0.0145-1.969,0z"
     id="path8" />
  <path
     fill="#008fff"
     d="M14.812,10.25c-0.453,0.013-0.8,0.063-1,0.156-0.199,0.094-0.303,0.238-0.343,0.438-0.041,0.2-0.063,0.501-0.063,0.875v19.187c0,0.774-0.04,1.463-0.094,2.063-0.053,0.6-0.17,1.1-0.343,1.5-0.174,0.4-0.435,0.724-0.781,0.937-0.347,0.214-0.789,0.313-1.376,0.313-0.666,0-1.3012-0.14-1.8745-0.407-0.5733-0.266-1.0327-0.559-1.4063-0.906-0.1066,0.213-0.2237,0.457-0.3437,0.75-0.12,0.294-0.1875,0.667-0.1875,1.094,0,0.293,0.054,0.564,0.1875,0.844s0.3677,0.523,0.6875,0.75c0.3198,0.226,0.7656,0.429,1.3125,0.562,0.5469,0.134,1.2355,0.188,2.0625,0.188,1.093,0,1.981-0.171,2.688-0.532,0.706-0.36,1.274-0.855,1.687-1.468s0.684-1.334,0.844-2.188c0.16-0.853,0.25-1.794,0.25-2.781v-21.375c-0.827,0-1.453-0.013-1.907,0zm10.969,7.594c-0.88,0-1.74,0.121-2.593,0.375-0.854,0.253-1.597,0.794-2.25,1.593-0.654,0.8-1.212,1.931-1.626,3.438-0.413,1.507-0.593,3.525-0.593,6.031,0,1.947,0.149,3.523,0.469,4.75,0.319,1.227,0.752,2.195,1.312,2.875s1.244,1.135,2.031,1.375,1.629,0.344,2.563,0.344c0.746,0,1.458-0.05,2.125-0.156,0.667-0.107,1.274-0.238,1.781-0.438s0.894-0.452,1.188-0.719c0.293-0.266,0.437-0.554,0.437-0.874s-0.022-0.699-0.063-1.126c-0.04-0.426-0.112-0.768-0.218-1.062-0.694,0.374-1.415,0.648-2.188,0.875s-1.575,0.344-2.375,0.344c-0.613,0-1.14-0.059-1.593-0.219-0.454-0.16-0.832-0.444-1.126-0.844-0.293-0.4-0.514-0.963-0.687-1.656s-0.286-1.558-0.313-2.625c0.481,0,1.052-0.018,1.719-0.031,0.667-0.014,1.397-0.041,2.157-0.094,0.759-0.053,1.507-0.108,2.281-0.188,0.773-0.079,1.525-0.21,2.219-0.343,0.159-0.72,0.276-1.536,0.343-2.469s0.094-1.839,0.094-2.719c0-4.293-1.708-6.437-5.094-6.437zm8.313,0.406c-0.454,0.013-0.8,0.054-1,0.094s-0.304,0.094-0.344,0.187-0.063,0.215-0.062,0.375v13.094c-0.001,1.12,0.076,2.079,0.25,2.906,0.173,0.827,0.484,1.534,0.937,2.094s1.071,0.983,1.844,1.25,1.768,0.375,2.969,0.375c1.092,0,2.165-0.108,3.218-0.375,1.054-0.267,1.946-0.636,2.719-1.062v-18.938c-0.8,0-1.404-0.013-1.844,0s-0.769,0.054-0.969,0.094c-0.199,0.04-0.303,0.094-0.343,0.187-0.041,0.093-0.063,0.215-0.063,0.375v16.156c-0.426,0.294-0.882,0.501-1.375,0.594s-0.939,0.156-1.312,0.156c-1.094,0-1.81-0.261-2.157-0.781-0.346-0.52-0.531-1.444-0.531-2.75v-14.031c-0.853,0-1.484-0.013-1.937,0zm14.156,0c-0.493,0-0.849,0.023-1.062,0.062-0.214,0.04-0.331,0.09-0.344,0.157s0.014,0.148,0.094,0.281l4.843,9.062-5.625,10.438h1.782c0.453,0,0.827-0.023,1.093-0.062,0.267-0.04,0.456-0.126,0.563-0.219,0.107-0.094,0.201-0.216,0.281-0.375l1.094-1.969c0.24-0.426,0.51-0.881,0.75-1.375s0.443-0.958,0.656-1.438c0.213-0.479,0.425-0.965,0.625-1.406,0.2-0.44,0.367-0.805,0.5-1.125,0.133,0.32,0.3,0.685,0.5,1.125,0.2,0.441,0.416,0.927,0.656,1.406,0.24,0.48,0.479,0.944,0.719,1.438s0.479,0.949,0.719,1.375l1.5,2.625h2.281c0.533,0,0.898-0.04,1.125-0.094,0.227-0.053,0.326-0.125,0.312-0.218-0.013-0.094-0.044-0.255-0.124-0.469l-5.313-9.875,5.094-9.344h-1.938c-0.453,0-0.804,0.023-1.031,0.062-0.227,0.04-0.371,0.077-0.438,0.157-0.066,0.08-0.139,0.21-0.218,0.343l-1.188,2.157c-0.214,0.4-0.443,0.792-0.656,1.219-0.213,0.426-0.425,0.854-0.625,1.281s-0.371,0.809-0.531,1.156c-0.161,0.347-0.3,0.666-0.406,0.906-0.107-0.24-0.247-0.546-0.407-0.906s-0.313-0.743-0.5-1.156c-0.187-0.414-0.38-0.842-0.593-1.281-0.214-0.44-0.439-0.846-0.626-1.219l-1.468-2.719h-2.094zm-22.812,2.438c0.852,0,1.429,0.275,1.75,0.874,0.32,0.6,0.504,1.623,0.531,3.063,0,0.374-0.036,0.792-0.063,1.219-0.027,0.426-0.076,0.814-0.156,1.187-0.347,0.107-0.752,0.197-1.219,0.25-0.466,0.054-0.944,0.085-1.437,0.125-0.494,0.04-0.989,0.063-1.469,0.063h-1.281c0.053-1.36,0.206-2.477,0.406-3.344s0.443-1.542,0.75-2.063c0.307-0.52,0.658-0.893,1.031-1.093s0.756-0.281,1.157-0.281z"
     id="path10" />
  <path
     fill="#2c2c2c"
     d="M112.81,11.031c-0.66,0-1.23,0.018-1.65,0.031-0.43,0.014-0.76,0.059-1,0.126-0.24,0.066-0.41,0.183-0.5,0.343-0.1,0.161-0.13,0.359-0.13,0.625v6.094h-2c-0.16,0-0.3,0.009-0.41,0.062-0.1,0.054-0.17,0.175-0.21,0.376-0.04,0.2-0.05,0.501-0.07,0.874-0.01,0.374-0.03,0.856-0.03,1.469h2.72v11.657c0,0.906,0.05,1.703,0.13,2.437s0.23,1.386,0.5,1.906c0.26,0.52,0.68,0.908,1.18,1.188,0.51,0.28,1.18,0.406,2.04,0.406,0.39,0,0.78-0.009,1.18-0.063,0.4-0.053,0.76-0.147,1.1-0.281,0.33-0.133,0.63-0.304,0.84-0.531s0.31-0.533,0.31-0.906c0-0.32-0.04-0.609-0.09-0.875-0.05-0.267-0.1-0.505-0.16-0.719-0.4,0.214-0.78,0.344-1.12,0.438-0.35,0.093-0.74,0.156-1.19,0.156-0.37,0-0.66-0.108-0.84-0.282-0.19-0.173-0.32-0.376-0.41-0.656s-0.14-0.613-0.16-1c-0.01-0.386-0.03-0.791-0.03-1.218v-11.657h3.44c0.16,0,0.3-0.009,0.37-0.062,0.08-0.054,0.12-0.206,0.16-0.407,0.04-0.2,0.08-0.452,0.1-0.812,0.01-0.36,0.03-0.86,0.03-1.5h-4.1v-7.219zm-33.466,6.813c-1.12,0-2.206,0.103-3.219,0.344-1.013,0.24-1.963,0.568-2.844,0.968v19.094h1.844c0.44,0,0.756-0.023,0.969-0.062,0.213-0.04,0.334-0.126,0.375-0.219,0.04-0.094,0.062-0.216,0.062-0.375v-16.25c0.88-0.454,1.786-0.656,2.719-0.656,0.8,0,1.322,0.13,1.562,0.437,0.241,0.307,0.381,0.843,0.407,1.563v15.562h1.906c0.44,0,0.738-0.023,0.937-0.062,0.2-0.04,0.317-0.126,0.344-0.219,0.027-0.094,0.031-0.216,0.032-0.375v-16.125c0.453-0.293,0.903-0.487,1.343-0.594s0.891-0.156,1.344-0.156c0.8,0,1.34,0.198,1.594,0.625,0.253,0.426,0.375,1.133,0.375,2.094v14.812h1.812c0.44,0,0.755-0.023,0.969-0.062,0.214-0.04,0.366-0.126,0.406-0.219,0.04-0.094,0.063-0.216,0.063-0.375v-14.125c0-0.908-0.063-1.714-0.156-2.407-0.094-0.692-0.287-1.269-0.594-1.75-0.307-0.48-0.775-0.84-1.375-1.093-0.6-0.254-1.389-0.375-2.375-0.375-0.827,0-1.683,0.117-2.563,0.344-0.88,0.226-1.65,0.501-2.343,0.874-0.373-0.399-0.851-0.692-1.438-0.906-0.587-0.213-1.303-0.312-2.156-0.312zm21.316,0c-1.524,0-2.817,0.121-3.91,0.375-1.093,0.253-1.81,0.474-2.156,0.687-0.16,0.134-0.277,0.3-0.344,0.5s-0.094,0.411-0.094,0.625c0,0.24,0.009,0.542,0.063,0.875,0.053,0.334,0.188,0.649,0.375,0.969,0.586-0.24,1.352-0.452,2.312-0.625,0.961-0.173,1.956-0.25,2.969-0.25,0.795,0,1.415,0.149,1.845,0.469s0.62,0.941,0.62,1.875v3.187c-0.4-0.213-0.86-0.37-1.4-0.437-0.55-0.067-1.049-0.094-1.502-0.094-0.667,0-1.329,0.09-1.969,0.25s-1.195,0.457-1.688,0.938c-0.493,0.48-0.912,1.146-1.219,2-0.306,0.853-0.437,1.988-0.437,3.374,0,1.36,0.149,2.437,0.469,3.25,0.32,0.814,0.748,1.449,1.281,1.876,0.533,0.426,1.15,0.674,1.844,0.781,0.693,0.106,1.405,0.156,2.125,0.156,1.306,0,2.406-0.144,3.346-0.437,0.93-0.294,1.65-0.587,2.19-0.907,0.05-0.747,0.09-1.602,0.12-2.562s0.07-1.983,0.09-3.063c0.03-1.08,0.03-2.183,0.03-3.344v-3.468-2.125c0-1.813-0.4-3.093-1.18-3.813-0.79-0.72-2.05-1.062-3.78-1.062zm24.4,0c-0.88,0-1.77,0.121-2.62,0.375-0.86,0.253-1.6,0.794-2.25,1.593-0.66,0.8-1.18,1.931-1.6,3.438-0.41,1.507-0.62,3.525-0.62,6.031,0,1.947,0.15,3.523,0.47,4.75s0.78,2.195,1.34,2.875,1.21,1.135,2,1.375,1.66,0.344,2.6,0.344c0.74,0,1.45-0.05,2.12-0.156,0.67-0.107,1.24-0.238,1.75-0.438s0.89-0.452,1.19-0.719c0.29-0.266,0.47-0.554,0.47-0.874s-0.03-0.699-0.07-1.126c-0.04-0.426-0.11-0.768-0.22-1.062-0.69,0.374-1.44,0.648-2.21,0.875-0.78,0.227-1.55,0.344-2.35,0.344-0.61,0-1.17-0.059-1.62-0.219-0.46-0.16-0.8-0.444-1.1-0.844-0.29-0.4-0.54-0.963-0.72-1.656-0.17-0.693-0.25-1.558-0.28-2.625,0.48,0,1.06-0.018,1.72-0.031,0.67-0.014,1.37-0.041,2.13-0.094s1.54-0.108,2.31-0.188c0.77-0.079,1.49-0.21,2.19-0.343,0.16-0.72,0.27-1.536,0.34-2.469s0.09-1.839,0.09-2.719c0-4.293-1.67-6.437-5.06-6.437zm27,0c-0.98,0-1.97,0.166-2.9,0.5-0.94,0.333-1.76,0.748-2.54,1.281v18.625h1.88c0.45,0,0.77-0.023,0.97-0.062,0.2-0.04,0.33-0.126,0.37-0.219,0.04-0.094,0.04-0.216,0.04-0.375l0.06-15.719c0.37-0.32,0.78-0.541,1.25-0.687,0.46-0.147,0.92-0.219,1.37-0.219,0.67,0,1.33,0.149,1.94,0.469,0.13-0.347,0.23-0.703,0.28-1.063s0.06-0.631,0.06-0.844c0-0.534-0.19-0.956-0.62-1.25-0.43-0.293-1.14-0.437-2.16-0.437zm10.06,0c-2.24,0-3.88,0.432-4.93,1.312-1.06,0.88-1.6,2.02-1.6,3.406,0,0.667,0.17,1.356,0.47,2.063,0.31,0.707,0.91,1.41,1.82,2.156l3.87,3.344c0.61,0.533,1.05,1.056,1.28,1.563,0.23,0.506,0.31,1.029,0.31,1.562,0,0.8-0.27,1.386-0.84,1.812-0.57,0.427-1.36,0.657-2.38,0.657-1.52,0-2.85-0.333-4-1-0.21,0.373-0.35,0.711-0.43,1.031s-0.13,0.604-0.13,0.844c0,0.692,0.44,1.197,1.35,1.531,0.9,0.334,2.09,0.5,3.53,0.5,2.05,0,3.67-0.477,4.84-1.437,1.17-0.961,1.75-2.339,1.75-4.126,0-1.013-0.17-1.86-0.53-2.593s-0.96-1.553-1.81-2.407l-3.72-3c-0.69-0.559-1.16-1.014-1.35-1.374-0.18-0.361-0.28-0.722-0.28-1.094,0-0.614,0.32-1.073,0.91-1.406,0.59-0.334,1.35-0.5,2.28-0.5,1.47,0,2.76,0.337,3.91,1.031,0.48-0.534,0.72-1.097,0.72-1.657,0-0.186-0.06-0.389-0.19-0.656-0.13-0.266-0.41-0.523-0.78-0.75-0.38-0.226-0.88-0.433-1.53-0.594-0.66-0.16-1.49-0.218-2.54-0.218zm-28.78,0.406c-0.45,0.013-0.76,0.054-0.96,0.094-0.21,0.04-0.34,0.094-0.38,0.187s-0.06,0.215-0.06,0.375v13.094c0,1.12,0.11,2.079,0.28,2.906s0.48,1.534,0.94,2.094c0.45,0.56,1.07,0.983,1.84,1.25s1.74,0.375,2.94,0.375c1.09,0,2.16-0.108,3.22-0.375,1.05-0.267,1.97-0.636,2.75-1.062v-18.938c-0.8,0-1.44-0.013-1.88,0s-0.74,0.054-0.94,0.094-0.33,0.094-0.37,0.187-0.06,0.215-0.06,0.375v16.156c-0.43,0.294-0.89,0.501-1.38,0.594s-0.91,0.156-1.28,0.156c-1.09,0-1.84-0.261-2.19-0.781-0.34-0.52-0.5-1.444-0.5-2.75v-14.031c-0.85,0-1.51-0.013-1.97,0zm-8.65,2.438c0.85,0,1.43,0.275,1.75,0.874,0.32,0.6,0.5,1.623,0.53,3.063,0,0.374-0.01,0.792-0.03,1.219-0.03,0.426-0.08,0.814-0.16,1.187-0.35,0.107-0.75,0.197-1.22,0.25-0.46,0.054-0.94,0.085-1.44,0.125-0.49,0.04-0.98,0.063-1.46,0.063h-1.28c0.05-1.36,0.17-2.477,0.37-3.344s0.44-1.542,0.75-2.063c0.31-0.52,0.66-0.893,1.03-1.093s0.76-0.281,1.16-0.281zm-24.22,7.75c0.29,0,0.62,0.04,0.97,0.093,0.34,0.054,0.64,0.148,0.9,0.281v1.719c0,0.613,0.02,1.195,0,1.781-0.01,0.587-0.05,1.137-0.06,1.657s-0.03,0.961-0.06,1.281c-0.19,0.187-0.46,0.336-0.84,0.469-0.39,0.133-0.8,0.187-1.26,0.187-0.395,0-0.769-0.014-1.089-0.094-0.32-0.079-0.585-0.246-0.812-0.5-0.227-0.253-0.412-0.609-0.531-1.062-0.12-0.453-0.188-1.061-0.188-1.781,0-0.88,0.09-1.574,0.25-2.094s0.358-0.925,0.625-1.219c0.267-0.293,0.609-0.5,0.969-0.594,0.36-0.093,0.726-0.124,1.126-0.124z"
     id="path12" />
  <g
     fill-rule="nonzero"
     transform="translate(-14.284821,-329.64837)"
     id="g14">
    <path
       d="m85.368,359.58-7.9727,2.1436,0.2361,8.0882c0.0051,0.26356-0.06852,0.48233-0.22096,0.6563-0.15245,0.17396-0.59929,0.36059-1.3405,0.55989-0.24709,0.0664-0.59668,0.15214-1.0488,0.25694-0.45214,0.1049-0.90302,0.18439-1.3526,0.23854l-0.32309-34.109c-0.02397-0.45769,0.39645-0.8028,1.2612-1.0354,0.71108-0.19115,1.311-0.3029,1.7999-0.33527l16.834,29.521c0.12891,0.23131,0.11164,0.44351-0.05182,0.63661-0.16349,0.19312-0.61633,0.38945-1.3585,0.589-0.27822,0.0748-0.60264,0.16203-0.97325,0.26167-0.37064,0.0997-0.79631,0.18076-1.277,0.24322zm-8.1071-1.4986,6.3968-1.7199-3.3456-6.1584c-0.39346-0.7224-0.78308-1.4625-1.1689-2.2204-0.38579-0.75783-0.75416-1.512-1.1051-2.2626-0.35096-0.75051-0.67596-1.4666-0.97499-2.1482-0.29904-0.68153-0.55449-1.2922-0.76633-1.8319,0.0883,0.57293,0.16621,1.2313,0.23373,1.9751,0.06752,0.74385,0.13562,1.5209,0.20431,2.3311,0.06869,0.81028,0.13575,1.6455,0.20118,2.5056,0.06543,0.86019,0.10908,1.7014,0.13097,2.5238z"
       stroke-miterlimit="4"
       id="path16"
       stroke-width="4"
       stroke="#FFF"
       fill="#FFF" />
    <path
       d="m85.368,359.58-7.9727,2.1436,0.2361,8.0882c0.0051,0.26356-0.06852,0.48233-0.22096,0.6563s-0.59929,0.36059-1.3405,0.55989c-0.24709,0.0664-0.59668,0.15215-1.0488,0.25694-0.45214,0.1049-0.90302,0.18439-1.3526,0.23854l-0.32309-34.109c-0.02397-0.45769,0.39645-0.8028,1.2612-1.0354,0.71107-0.19115,1.311-0.3029,1.7999-0.33527l16.834,29.521c0.12891,0.2313,0.11164,0.4435-0.05181,0.6366-0.16349,0.19312-0.61633,0.38945-1.3585,0.589-0.27822,0.0748-0.60264,0.16203-0.97325,0.26167-0.37064,0.0997-0.79631,0.18076-1.277,0.24323zm-8.1071-1.4986,6.3968-1.7199-3.3456-6.1584c-0.39346-0.7224-0.78308-1.4625-1.1689-2.2204-0.38579-0.75783-0.75416-1.512-1.1051-2.2626-0.35096-0.7505-0.67596-1.4666-0.97499-2.1482-0.29904-0.68153-0.55449-1.2922-0.76633-1.8319,0.0883,0.57293,0.16621,1.2313,0.23373,1.9751,0.06752,0.74386,0.13562,1.5209,0.20431,2.3311,0.06869,0.81028,0.13575,1.6455,0.20118,2.5056,0.06542,0.86019,0.10908,1.7014,0.13097,2.5237z"
       id="path18"
       fill="#2c2c2c" />
  </g>
</svg>
